# xmcd
#
# Track frame offsets:
#	150
#	17576
#	30369
#	49998
#	67085
#	81878
#	101562
#	117334
#	138138
#	155838
#
# Disc length: 2275 seconds
#
# Revision: 1
# Processed by: cddbd v1.5.2PL0 Copyright (c) Steve Scherf et al.
# Submitted via: audiograbber 1.83.01
#
DISCID=8008e10a
DTITLE=Aaron Lordson - Soul my Soul
DYEAR=2013
DGENRE=Rhythmic Soul
TTITLE0=You Are The Best Thing 
TTITLE1=Somewhere Over The Rainbow
TTITLE2=I'll Take You There
TTITLE3=Enjoy Your Meal
TTITLE4=Basket Case
TTITLE5=Every Breath You Take
TTITLE6=Maybe I'm Amazed
TTITLE7=Another Love T.K.O
TTITLE8=Always On My Mind
TTITLE9=Three Little Birds
EXTD=
EXTT0=
EXTT1=
EXTT2=
EXTT3=
EXTT4=
EXTT5=
EXTT6=
EXTT7=
EXTT8=
EXTT9=
PLAYORDER=
